<svg width="30" height="30" viewBox="0 0 30 30" fill="none" xmlns="http://www.w3.org/2000/svg">
<g clip-path="url(#clip0)">
<path d="M15 15C16.5975 15 18.1591 14.5601 19.4873 13.736C20.8155 12.9119 21.8508 11.7405 22.4621 10.3701C23.0734 8.99964 23.2334 7.49164 22.9217 6.03678C22.6101 4.58192 21.8408 3.24555 20.7112 2.19666C19.5817 1.14776 18.1425 0.433457 16.5757 0.144068C15.009 -0.145321 13.385 0.00320385 11.9091 0.570861C10.4332 1.13852 9.17179 2.09981 8.28428 3.33318C7.39678 4.56655 6.92308 6.0166 6.92308 7.49996C6.92308 9.48908 7.77404 11.3967 9.28875 12.8033C10.8035 14.2098 12.8579 15 15 15ZM15 17.1428C9.99375 17.1428 0 20.0142 0 25.7142V30H30V25.7142C30 20.0142 20.0062 17.1428 15 17.1428Z" fill="#ea5455"/>
</g>
<defs>
<clipPath id="clip0">
<rect width="30" height="30" fill="white"/>
</clipPath>
</defs>
</svg>
