<svg width="30" height="30" viewBox="0 0 30 30" fill="none" xmlns="http://www.w3.org/2000/svg">
<path d="M27.1875 4.6875H2.8125C2.56386 4.6875 2.3254 4.78627 2.14959 4.96209C1.97377 5.1379 1.875 5.37636 1.875 5.625V24.375C1.875 24.6236 1.97377 24.8621 2.14959 25.0379C2.3254 25.2137 2.56386 25.3125 2.8125 25.3125H27.1875C27.4361 25.3125 27.6746 25.2137 27.8504 25.0379C28.0262 24.8621 28.125 24.6236 28.125 24.375V5.625C28.125 5.37636 28.0262 5.1379 27.8504 4.96209C27.6746 4.78627 27.4361 4.6875 27.1875 4.6875ZM15.5754 16.6775C15.4109 16.8054 15.2084 16.8749 15 16.8749C14.7916 16.8749 14.5891 16.8054 14.4246 16.6775L5.24707 9.53965L6.39785 8.05957L15 14.7498L23.6021 8.05957L24.7529 9.53965L15.5754 16.6775Z" fill="#f9f9f9"/>
</svg>
