<svg width="30" height="30" viewBox="0 0 30 30" fill="none" xmlns="http://www.w3.org/2000/svg">
<path d="M15.3258 5.93441C15.2385 5.85096 15.1225 5.80438 15.0018 5.80438C14.881 5.80438 14.765 5.85096 14.6777 5.93441L3.89062 16.2393C3.84481 16.2831 3.80837 16.3358 3.78349 16.3941C3.75862 16.4524 3.74583 16.5152 3.7459 16.5785L3.74414 26.25C3.74414 26.7473 3.94168 27.2242 4.29332 27.5759C4.64495 27.9275 5.12186 28.125 5.61914 28.125H11.25C11.4986 28.125 11.7371 28.0263 11.9129 27.8504C12.0887 27.6746 12.1875 27.4362 12.1875 27.1875V19.2188C12.1875 19.0945 12.2369 18.9752 12.3248 18.8873C12.4127 18.7994 12.5319 18.75 12.6563 18.75H17.3438C17.4681 18.75 17.5873 18.7994 17.6752 18.8873C17.7631 18.9752 17.8125 19.0945 17.8125 19.2188V27.1875C17.8125 27.4362 17.9113 27.6746 18.0871 27.8504C18.2629 28.0263 18.5014 28.125 18.75 28.125H24.3785C24.8758 28.125 25.3527 27.9275 25.7043 27.5759C26.056 27.2242 26.2535 26.7473 26.2535 26.25V16.5785C26.2536 16.5152 26.2408 16.4524 26.2159 16.3941C26.191 16.3358 26.1546 16.2831 26.1088 16.2393L15.3258 5.93441Z" fill="black"/>
<path d="M28.7643 14.3057L24.3815 10.1127V3.75C24.3815 3.50136 24.2827 3.2629 24.1069 3.08709C23.9311 2.91127 23.6926 2.8125 23.444 2.8125H20.6315C20.3828 2.8125 20.1444 2.91127 19.9686 3.08709C19.7927 3.2629 19.694 3.50136 19.694 3.75V5.625L16.3002 2.38008C15.9826 2.05898 15.5104 1.875 15 1.875C14.4914 1.875 14.0203 2.05898 13.7028 2.38066L1.23987 14.3045C0.875413 14.6561 0.82971 15.2344 1.16135 15.6152C1.24463 15.7114 1.3466 15.7896 1.46106 15.845C1.57551 15.9005 1.70006 15.9321 1.82712 15.9379C1.95417 15.9437 2.08108 15.9236 2.20013 15.8788C2.31917 15.834 2.42785 15.7655 2.51955 15.6774L14.6778 4.05938C14.765 3.97593 14.8811 3.92935 15.0018 3.92935C15.1225 3.92935 15.2386 3.97593 15.3258 4.05938L27.4852 15.6774C27.6643 15.8491 27.9042 15.9429 28.1523 15.938C28.4004 15.9332 28.6365 15.8302 28.8088 15.6516C29.1686 15.2789 29.1387 14.6637 28.7643 14.3057Z" fill="black"/>
</svg>
