<svg width="31" height="31" viewBox="0 0 31 31" fill="none" xmlns="http://www.w3.org/2000/svg">
<g clip-path="url(#clip0)">
<path d="M22.9824 0.776184H8.2168C7.93708 0.776184 7.66881 0.887303 7.47102 1.08509C7.27323 1.28289 7.16211 1.55115 7.16211 1.83087V29.7215C7.16211 30.0012 7.27323 30.2695 7.47102 30.4673C7.66881 30.6651 7.93708 30.7762 8.2168 30.7762H22.9824C23.2621 30.7762 23.5304 30.6651 23.7282 30.4673C23.926 30.2695 24.0371 30.0012 24.0371 29.7215V1.83087C24.0371 1.55115 23.926 1.28289 23.7282 1.08509C23.5304 0.887303 23.2621 0.776184 22.9824 0.776184V0.776184ZM9.27148 27.0262V4.52618H21.9277V27.0262H9.27148Z" fill="black"/>
</g>
<defs>
<clipPath id="clip0">
<rect width="30" height="30" fill="white" transform="translate(0.599609 0.776184)"/>
</clipPath>
</defs>
</svg>
