<svg width="32" height="36" viewBox="0 0 32 36" fill="none" xmlns="http://www.w3.org/2000/svg">
<path d="M2.05783 15.0788L15.7349 1.40181C15.8693 1.26733 16.0397 1.17239 16.2266 1.13724C18.6221 0.686726 20.1117 1.45111 20.5684 1.90784L29.8237 11.1631C31.447 12.5158 31.0569 14.8323 30.6069 15.9762C30.562 16.0904 30.4912 16.1913 30.4044 16.278L22.3434 24.339C21.9529 24.7295 21.3198 24.7295 20.9292 24.339L18.7837 22.1935C18.3932 21.8029 18.3932 21.1698 18.7837 20.7792L23.983 15.5799C24.0788 15.4842 24.1951 15.4109 24.3167 15.3514C25.47 14.7881 25.2044 13.8327 24.8812 13.3566C24.8547 13.3175 24.8233 13.2822 24.7898 13.2487L19.5005 7.95938C17.9167 6.37559 17.0262 6.50451 16.7155 6.8153C16.6689 6.86187 16.6293 6.91491 16.5827 6.96148L7.39743 16.1468C6.33927 17.2049 6.4279 18.1402 6.63606 18.5531C6.66571 18.6119 6.70894 18.662 6.7555 18.7086L16.5827 28.5358C16.6292 28.5823 16.67 28.6342 16.7107 28.6859L16.7108 28.6861C17.2706 29.3979 18.2481 28.986 18.7312 28.6473C18.77 28.6202 18.8054 28.589 18.8388 28.5556L20.9292 26.4651C21.3198 26.0746 21.9529 26.0746 22.3435 26.4651L24.489 28.6106C24.8795 29.0012 24.8795 29.6343 24.489 30.0249L20.3486 34.1652C20.2587 34.2551 20.1527 34.3282 20.0341 34.3741C18.222 35.0757 16.3103 34.7056 15.4076 34.3723C15.2882 34.3282 15.1826 34.2551 15.0926 34.1652L1.80089 20.8734C1.73519 20.8077 1.67801 20.7325 1.63474 20.6503C0.312398 18.1374 1.35739 15.896 2.05783 15.0788Z" fill="#98CA3F" stroke="#98CA3F"/>
</svg>
