<svg width="30" height="30" viewBox="0 0 30 30" fill="none" xmlns="http://www.w3.org/2000/svg">
<g clip-path="url(#clip0)">
<path d="M15 16.5234C15.8414 16.5234 16.5234 15.8414 16.5234 15C16.5234 14.1586 15.8414 13.4766 15 13.4766C14.1586 13.4766 13.4766 14.1586 13.4766 15C13.4766 15.8414 14.1586 16.5234 15 16.5234Z" fill="#ea5455"/>
<path d="M20.2734 16.5234C21.1148 16.5234 21.7969 15.8414 21.7969 15C21.7969 14.1586 21.1148 13.4766 20.2734 13.4766C19.4321 13.4766 18.75 14.1586 18.75 15C18.75 15.8414 19.4321 16.5234 20.2734 16.5234Z" fill="#ea5455"/>
<path d="M9.72656 16.5234C10.5679 16.5234 11.25 15.8414 11.25 15C11.25 14.1586 10.5679 13.4766 9.72656 13.4766C8.88519 13.4766 8.20312 14.1586 8.20312 15C8.20312 15.8414 8.88519 16.5234 9.72656 16.5234Z" fill="#ea5455"/>
<path d="M9.375 21.5625L1.875 15L9.375 8.4375M20.625 21.5625L28.125 15L20.625 8.4375" stroke="#ea5455" stroke-width="4" stroke-linecap="round" stroke-linejoin="round"/>
</g>
<defs>
<clipPath id="clip0">
<rect width="30" height="30" fill="white"/>
</clipPath>
</defs>
</svg>
