<svg width="30" height="30" viewBox="0 0 30 30" fill="none" xmlns="http://www.w3.org/2000/svg">
<path d="M14.0625 12.6562V1.875H5.39062C5.20414 1.875 5.0253 1.94908 4.89344 2.08094C4.76158 2.2128 4.6875 2.39164 4.6875 2.57812V27.4219C4.6875 27.6084 4.76158 27.7872 4.89344 27.9191C5.0253 28.0509 5.20414 28.125 5.39062 28.125H24.6094C24.7959 28.125 24.9747 28.0509 25.1066 27.9191C25.2384 27.7872 25.3125 27.6084 25.3125 27.4219V13.125H14.5312C14.4069 13.125 14.2877 13.0756 14.1998 12.9877C14.1119 12.8998 14.0625 12.7806 14.0625 12.6562Z" fill="#ea5455"/>
<path d="M15.9375 2.44278V11.0156C15.9375 11.0778 15.9622 11.1374 16.0061 11.1814C16.0501 11.2253 16.1097 11.25 16.1719 11.25H24.7447C24.7679 11.25 24.7905 11.2432 24.8098 11.2303C24.8291 11.2175 24.8441 11.1992 24.853 11.1779C24.8619 11.1565 24.8643 11.133 24.8598 11.1102C24.8554 11.0875 24.8443 11.0666 24.8279 11.0502L16.1373 2.35958C16.1209 2.34325 16.1 2.33216 16.0773 2.3277C16.0545 2.32323 16.031 2.3256 16.0096 2.33451C15.9883 2.34341 15.97 2.35844 15.9572 2.37771C15.9443 2.39698 15.9375 2.41963 15.9375 2.44278V2.44278Z" fill="#ea5455"/>
</svg>
