<svg width="30" height="30" viewBox="0 0 30 30" fill="none" xmlns="http://www.w3.org/2000/svg">
<path d="M15 2.8125C8.26934 2.8125 2.8125 8.26934 2.8125 15C2.8125 21.7307 8.26934 27.1875 15 27.1875C21.7307 27.1875 27.1875 21.7307 27.1875 15C27.1875 8.26934 21.7307 2.8125 15 2.8125Z" stroke="black" stroke-width="2" stroke-miterlimit="10"/>
<path d="M14.9997 2.8125C11.5972 2.8125 8.39795 8.26934 8.39795 15C8.39795 21.7307 11.5972 27.1875 14.9997 27.1875C18.4022 27.1875 21.6015 21.7307 21.6015 15C21.6015 8.26934 18.4022 2.8125 14.9997 2.8125Z" stroke="black" stroke-width="2" stroke-miterlimit="10"/>
<path d="M23.1249 23.1252C20.8843 21.5344 18.0636 20.5858 14.9997 20.5858C11.9358 20.5858 9.11514 21.5344 6.87451 23.1252M6.87451 6.87482C9.11514 8.46564 11.9358 9.41427 14.9997 9.41427C18.0636 9.41427 20.8843 8.46564 23.1249 6.87482H6.87451Z" stroke="black" stroke-width="2" stroke-linecap="round" stroke-linejoin="round"/>
<path d="M27.1875 15H2.8125M15 2.8125V27.1875V2.8125Z" stroke="black" stroke-width="2" stroke-miterlimit="10"/>
</svg>
